# AST/ASF file generated using VICON BodyLanguage
# -----------------------------------------------
:version 1.10
:name VICON
:units
  mass 1.0
  length 0.45
  angle deg
:documentation
   .ast/.asf automatically generated from VICON data using
   VICON BodyBuilder and BodyLanguage model FoxedUp or BRILLIANT.MOD
:root
   order TX TY TZ RX RY RZ
   axis XYZ
   position 0 0 0  
   orientation 0 0 0 
:bonedata
  begin
     id 1 
     name lhipjoint
     direction 0.690799 -0.707083 0.151096 
     length 2.54797 
     axis 0 0 0  XYZ
  end
  begin
     id 2 
     name lfemur
     direction 0.34202 -0.939693 0  
     length 7.21646  
     axis 0 0 20  XYZ
    dof rx ry rz
    limits (-160.0 20.0)
           (-70.0 70.0)
           (-60.0 70.0)
  end
  begin
     id 3 
     name ltibia
     direction 0.34202 -0.939693 0   
     length 8.16759   
     axis 0 0 20   XYZ
    dof rx
    limits (-10.0 170.0)
  end
  begin
     id 4 
     name lfoot
     direction 0.0487203 -0.133858 0.989802   
     length 1.93375   
     axis -90 7.62852e-016 20   XYZ
    dof rx rz
    limits (-45.0 90.0)
           (-70.0 20.0)
  end
  begin
     id 5 
     name ltoes
     direction 1.53453e-011 -4.21783e-011 1   
     length 0.979747   
     axis -90 7.62852e-016 20   XYZ
    dof rx
    limits (-90.0 20.0)
  end
  begin
     id 6 
     name rhipjoint
     direction -0.694693 -0.703425 0.150315   
     length 2.56122  
     axis 0 0 0  XYZ 
  end
  begin
     id 7 
     name rfemur
     direction -0.34202 -0.939693 0   
     length 7.36786   
     axis 0 0 -20   XYZ
    dof rx ry rz
    limits (-160.0 20.0)
           (-70.0 70.0)
           (-70.0 60.0)
  end
  begin
     id 8 
     name rtibia
     direction -0.34202 -0.939693 0   
     length 8.07288   
     axis 0 0 -20   XYZ
    dof rx
    limits (-10.0 170.0)
 end
 begin
     id 9 
     name rfoot
     direction -0.0428397 -0.117701 0.992125   
     length 1.88295  
     axis -90 -7.62852e-016 -20   XYZ
    dof rx rz
    limits (-45.0 90.0)
           (-20.0 70.0)
  end
  begin
     id 10 
     name rtoes
     direction -1.53456e-011 -4.2187e-011 1   
     length 0.955578   
     axis -90 -7.62852e-016 -20   XYZ
    dof rx
    limits (-90.0 20.0)
  end
  begin
     id 11 
     name lowerback
     direction 0.0288145 0.999398 -0.0193241   
     length 1.92149   
     axis 0 0 0   XYZ
    dof rx ry rz
    limits (-20.0 45.0)
           (-30.0 30.0)
           (-30.0 30.0)
  end
  begin
     id 12 
     name upperback
     direction 0.0233784 0.998099 0.0570278   
     length 1.90435   
     axis 0 0 0   XYZ
    dof rx ry rz
    limits (-20.0 45.0)
           (-30.0 30.0)
           (-30.0 30.0)
  end
  begin
     id 13 
     name thorax
     direction 0.0096694 0.997833 0.0650817   
     length 1.9111   
     axis 0 0 0   XYZ
    dof rx ry rz
    limits (-20.0 45.0)
           (-30.0 30.0)
           (-30.0 30.0)
  end
  begin
     id 14 
     name lowerneck
     direction 0.00516803 0.999916 0.0118722   
     length 1.74664   
     axis 0 0 0   XYZ
    dof rx ry rz
    limits (-20.0 45.0)
           (-30.0 30.0)
           (-30.0 30.0)
  end
  begin
     id 15 
     name upperneck
     direction -0.0510851 0.996117 -0.071696   
     length 1.68498   
     axis 0 0 0   XYZ
    dof rx ry rz
    limits (-20.0 45.0)
           (-30.0 30.0)
           (-30.0 30.0)
  end
  begin
     id 16
     name head
     direction -0.019188 0.999436 -0.0275702  
     length 1.83483  
     axis 0 0 0   XYZ
    dof rx ry rz
    limits (-20.0 45.0)
           (-30.0 30.0)
           (-30.0 30.0)
  end
  begin
     id 17 
     name lclavicle
     direction 0.967006 0.248456 -0.0562957  
     length 3.39395  
     axis 0 0 0   XYZ
    dof ry rz
    limits (-20.0 10.0)
           (0.0 20.0)
  end
  begin
     id 18 
     name lhumerus
     direction 1 -4.48962e-011 -5.62711e-019   
     length 5.24318   
     axis 180 -30 -90   XYZ
    dof rx ry rz
    limits (-60.0 90.0)
           (-90.0 90.0)
           (-90.0 90.0)
  end
  begin
     id 19
     name lradius
     direction 1 -4.48966e-011 7.90625e-027   
     length 2.98999   
     axis 180 -30 -90   XYZ
    dof rx
    limits (-10.0 170.0)
  end
  begin
     id 20
     name lwrist
     direction 1 -4.48959e-011 1.61068e-026   
     length 1.49499   
     axis -9.31229e-015 90 90   XYZ
    dof ry
    limits (-180.0 0.0)
 end
  begin
     id 21 
     name lhand
     direction 1 -4.49017e-011 3.22136e-026   
     length 0.726745   
     axis -2.0555e-014 90 90   XYZ
    dof rx rz
    limits (-90.0 90.0)
           (-45.0 45.0)
  end
  begin
     id 22 
     name lfingers
     direction 1 -4.4898e-011 6.44272e-026   
     length 0.58592   
     axis -4.11101e-014 90 90   XYZ
    dof rx
    limits (0.0 90.0)
  end
  begin
     id 23
     name lthumb
     direction 0.707107 -6.34922e-011 0.707107   
     length 0.841268   
     axis -90 45 2.85299e-015   XYZ
    dof rx rz
    limits (-45.0 45.0)
           (-45.0 45.0)
  end
  begin
     id 24 
     name rclavicle
     direction -0.972232 0.230238 0.0419005   
     length 3.40416  
     axis 0 0 0   XYZ 
    dof ry rz
    limits (-10.0 20.0)
           (-20.0 0.0)
  end
  begin
     id 25 
     name rhumerus
     direction -1 -4.48976e-011 2.48487e-027  
     length 5.37045   
     axis 180 30 90   XYZ
    dof rx ry rz
    limits (-90.0 60.0)
           (-90.0 90.0)
           (-90.0 90.0)
  end
  begin
     id 26 
     name rradius
     direction -1 -4.48942e-011 7.87951e-027   
     length 2.92792   
     axis 180 30 90   XYZ
    dof rx
    limits (-10.0 170.0)
  end
  begin
     id 27 
     name rwrist
     direction -1 -4.48969e-011 1.61068e-026   
     length 1.46396   
     axis -9.31229e-015 -90 -90   XYZ
    dof ry
    limits (-180.0 0.0)
  end
  begin
     id 28
     name rhand
     direction -1 -4.49043e-011 3.22136e-026   
     length 0.784497   
     axis -2.0555e-014 -90 -90   XYZ
    dof rx rz
    limits (-90.0 90.0)
           (-45.0 45.0)
  end
  begin
     id 29
     name rfingers
     direction -1 -4.48823e-011 6.44272e-026   
     length 0.632482   
     axis -4.11101e-014 -90 -90   XYZ
    dof rx
    limits (0.0 90.0)
  end
  begin
     id 30
     name rthumb
     direction -0.707107 -6.34923e-011 0.707107   
     length 0.908121   
     axis -90 -45 -2.85299e-015   XYZ
    dof rx rz
    limits (-45.0 45.0)
           (-45.0 45.0)
  end
:hierarchy
  begin
    root lhipjoint rhipjoint lowerback
    lhipjoint lfemur
    lfemur ltibia
    ltibia lfoot
    lfoot ltoes
    rhipjoint rfemur
    rfemur rtibia
    rtibia rfoot
    rfoot rtoes
    lowerback upperback
    upperback thorax
    thorax lowerneck lclavicle rclavicle
    lowerneck upperneck
    upperneck head
    lclavicle lhumerus
    lhumerus lradius
    lradius lwrist
    lwrist lhand lthumb
    lhand lfingers
    rclavicle rhumerus
    rhumerus rradius
    rradius rwrist
    rwrist rhand rthumb
    rhand rfingers
  end

#!OML:ASF E:\Style6\Style6.ASF
:FULLY-SPECIFIED
:DEGREES
1094
root -0.198928 15.6191 -1.80662 17.5105 15.8455 1.16108
lowerback 28.4471 -1.37719 5.96587
upperback 5.9846 0.373399 2.93696
thorax -8.97213 0.103245 -0.276904
lowerneck -17.2549 2.20048 0.315977
upperneck 16.7647 5.82284 -13.7778
head 8.5751 1.40052 -3.9864
rclavicle -8.74653e-015 2.06736e-014
rhumerus 37.5919 29.131 -49.9663
rradius 114.185
rwrist -29.3213
rhand 8.49703 1.50802
rfingers 7.12502
rthumb 33.6995 -25.342
lclavicle -8.74653e-015 2.06736e-014
lhumerus 17.398 -18.6909 74.7403
lradius 54.5821
lwrist 45.4638
lhand -2.55432 27.7095
lfingers 7.12502
lthumb 23.1416 56.3395
rfemur -64.3167 -27.6196 30.1919
rtibia 69.508
rfoot -18.0427 4.31931
rtoes -2.19229
lfemur -63.3668 2.45789 -19.6407
ltibia 66.0215
lfoot -15.4254 -13.0701
ltoes -7.9708
1095
root -0.191753 15.6274 -1.80728 17.4936 15.6344 1.13152
lowerback 28.6242 -1.37551 5.99807
upperback 6.00206 0.397422 2.92921
thorax -9.03842 0.112071 -0.311001
lowerneck -17.2525 2.17055 0.319809
upperneck 16.7853 5.77157 -13.729
head 8.57528 1.38022 -3.97734
rclavicle 1.59028e-015 7.95139e-015
rhumerus 36.8482 29.2346 -50.4601
rradius 114.372
rwrist -29.4022
rhand 8.67439 1.40552
rfingers 7.12502
rthumb 33.868 -25.4075
lclavicle 1.59028e-015 7.95139e-015
lhumerus 17.8095 -18.1698 74.6522
lradius 54.1758
lwrist 45.5124
lhand -2.60732 27.7322
lfingers 7.12502
lthumb 23.0908 56.3686
rfemur -64.2602 -27.5522 30.1968
rtibia 69.3627
rfoot -17.9217 4.42072
rtoes -2.1708
lfemur -63.2545 2.5142 -19.6281
ltibia 65.9304
lfoot -15.4356 -12.8971
ltoes -8.12753
1096
root -0.182387 15.6378 -1.80722 17.5578 15.3639 1.21425
lowerback 28.7073 -1.34152 5.906
upperback 6.04649 0.417891 2.93268
thorax -9.02915 0.124171 -0.261453
lowerneck -17.3446 2.14933 0.222199
upperneck 16.7882 5.7659 -13.7024
head 8.58976 1.36986 -3.95263
rclavicle -3.18055e-015 -1.51076e-014
rhumerus 36.2549 29.3603 -50.8025
rradius 114.523
rwrist -29.3957
rhand 8.79391 1.36865
rfingers 7.12502
rthumb 33.9815 -25.4192
lclavicle -3.18055e-015 -1.51076e-014
lhumerus 18.173 -17.569 74.6268
lradius 53.8384
lwrist 45.4576
lhand -2.50346 27.8763
lfingers 7.12502
lthumb 23.1904 56.5002
rfemur -64.2868 -27.4544 30.0867
rtibia 69.2883
rfoot -17.8653 4.40649
rtoes -2.94433
lfemur -63.1723 2.56804 -19.7556
ltibia 65.8377
lfoot -15.4514 -12.7027
ltoes -8.36389
1097
root -0.172842 15.6491 -1.8078 17.6906 15.1002 1.22723
lowerback 28.4954 -1.23636 5.68267
upperback 6.20937 0.478014 3.10357
thorax -8.74142 0.166459 0.0332207
lowerneck -17.373 2.11601 -0.0377663
upperneck 16.5711 5.74977 -13.6564
head 8.51345 1.35967 -3.88984
rclavicle 4.92986e-014 1.03368e-014
rhumerus 35.9603 29.461 -50.8064
rradius 114.611
rwrist -29.4103
rhand 8.85859 1.4142
rfingers 7.12502
rthumb 34.043 -25.36
lclavicle 4.92986e-014 1.03368e-014
lhumerus 18.701 -16.8722 74.7279
lradius 53.4844
lwrist 45.4356
lhand -2.25999 28.0601
lfingers 7.12502
lthumb 23.424 56.6544
rfemur -64.4054 -27.3355 30.1111
rtibia 69.2101
rfoot -17.8095 4.4368
rtoes -3.323
lfemur -63.2049 2.67148 -19.8327
ltibia 65.755
lfoot -15.5314 -12.4651
ltoes -9.22484
1098
root -0.133213 15.6169 -1.82474 18.4402 15.5197 1.4571
lowerback 27.2931 -1.3954 5.87658
upperback 6.43923 0.252205 3.43814
thorax -7.89431 0.0802335 0.356492
lowerneck -17.4344 2.03261 -0.376208
upperneck 16.1663 5.7226 -13.8975
head 8.3908 1.32128 -3.91023
rclavicle 8.74653e-015 -7.95139e-015
rhumerus 35.9749 29.3499 -50.3175
rradius 114.706
rwrist -29.4865
rhand 9.00616 1.36797
rfingers 7.12502
rthumb 34.1831 -25.375
lclavicle 8.74653e-015 -7.95139e-015
lhumerus 19.4933 -16.0976 75.1836
lradius 53.1782
lwrist 45.5274
lhand -2.1918 28.2373
lfingers 7.12502
lthumb 23.4894 56.8233
rfemur -65.601 -27.9436 30.4541
rtibia 69.2584
rfoot -17.5284 4.5992
rtoes -3.77941
lfemur -64.1507 1.9277 -20.0208
ltibia 65.7391
lfoot -15.3297 -12.1584
ltoes -10.113
1099
root -0.125102 15.6222 -1.82392 18.5328 15.3431 1.5286
lowerback 27.5897 -1.55651 6.27923
upperback 6.26199 0.155521 3.07577
thorax -8.23895 0.0156811 -0.238384
lowerneck -17.3944 2.0951 -0.0424505
upperneck 16.2946 5.70119 -13.7373
head 8.42377 1.34163 -3.91689
rclavicle 2.62396e-014 -2.38542e-015
rhumerus 34.9062 29.6093 -51.4325
rradius 114.784
rwrist -29.1231
rhand 8.95971 1.38362
rfingers 7.12502
rthumb 34.139 -25.3692
lclavicle 2.62396e-014 -2.38542e-015
lhumerus 19.5446 -16.0249 74.5903
lradius 53.1187
lwrist 45.7973
lhand -2.26513 28.211
lfingers 7.12502
lthumb 23.4191 56.8059
rfemur -65.6717 -27.9337 30.4026
rtibia 69.174
rfoot -17.4488 4.70904
rtoes -3.7502
lfemur -64.128 1.93262 -20.119
ltibia 65.6527
lfoot -15.3647 -12.0273
ltoes -10.2359
1100
root -0.150573 15.6674 -1.80512 18.0443 14.571 1.41863
lowerback 28.3541 -1.22127 5.67235
upperback 6.30378 0.465915 3.0263
thorax -8.56384 0.164153 -0.0458193
lowerneck -17.3597 2.12131 0.0545613
upperneck 16.3845 5.6885 -13.582
head 8.44158 1.35306 -3.88336
rclavicle -1.43125e-014 -2.46493e-014
rhumerus 34.0604 29.8228 -52.138
rradius 114.878
rwrist -28.8648
rhand 8.80349 1.33346
rfingers 7.12502
rthumb 33.9906 -25.4524
lclavicle -1.43125e-014 -2.46493e-014
lhumerus 19.602 -15.8433 74.211
lradius 53.1794
lwrist 45.8799
lhand -2.39874 28.0421
lfingers 7.12502
lthumb 23.2909 56.6534
rfemur -64.683 -27.2432 30.0165
rtibia 68.9295
rfoot -17.511 4.84577
rtoes -2.34177
lfemur -63.2329 2.70721 -20.1045
ltibia 65.4909
lfoot -15.5428 -12.1127
ltoes -9.59895
